<svg width="301" height="64" viewBox="0 0 301 64" fill="none" xmlns="http://www.w3.org/2000/svg">
<mask id="path-1-outside-1_3207_10" maskUnits="userSpaceOnUse" x="0" y="0" width="301" height="64" fill="black">
<rect fill="white" width="301" height="64"/>
<path fill-rule="evenodd" clip-rule="evenodd" d="M52.9378 9.80501C47.4288 4.361 39.8569 1 31.5 1C14.6553 1 1 14.6553 1 31.5C1 48.3447 14.6553 62 31.5 62C39.8534 62 47.4225 58.6418 52.9308 53.2019C52.9767 53.1575 53.0222 53.1127 53.0675 53.0675C53.1127 53.0223 53.1574 52.9768 53.2018 52.9309C58.6418 47.4225 62 39.8534 62 31.5C62 23.1453 58.6408 15.5752 53.1993 10.0666C53.1563 10.0221 53.1128 9.97787 53.0688 9.93395C53.0254 9.89057 52.9818 9.84759 52.9378 9.80501ZM31.5 59.1364C35.5915 59.1364 39.4754 58.2472 42.9689 56.6517C39.4235 56.5819 35.4859 55.5681 31.5013 53.6964C27.5157 55.5686 23.5772 56.5824 20.0311 56.6516C23.5246 58.2472 27.4085 59.1364 31.5 59.1364ZM6.35107 42.9749C6.41976 39.4282 7.43355 35.4887 9.30603 31.5022C7.43293 27.5152 6.41869 23.5752 6.34973 20.0281C4.75328 23.5224 3.86364 27.4073 3.86364 31.5C3.86364 35.5939 4.75378 39.4798 6.35107 42.9749ZM11.1089 34.9045C10.6575 36.0673 10.2915 37.2124 10.0125 38.3283C8.58733 44.029 9.52122 48.4107 12.0566 50.9461C14.5921 53.4816 18.9738 54.4155 24.6745 52.9903C25.7906 52.7112 26.9359 52.3452 28.0988 51.8937C24.8207 49.9577 21.5772 47.4574 18.5607 44.4408C15.5447 41.4248 13.0447 38.182 11.1089 34.9045ZM31.5013 50.3509C27.8443 48.4555 24.1253 45.7628 20.682 42.3195C17.2393 38.8768 14.5469 35.1585 12.6516 31.5021C14.5469 27.8448 17.2398 24.1255 20.6833 20.682C24.1262 17.2391 27.8448 14.5466 31.5013 12.6513C35.1579 14.5466 38.8765 17.2391 42.3194 20.682C45.763 24.1256 48.4558 27.8448 50.3512 31.5021C48.4559 35.1584 45.7635 38.8767 42.3208 42.3194C38.8775 45.7628 35.1584 48.4555 31.5013 50.3509ZM34.9039 51.8937C38.182 49.9577 41.4255 47.4573 44.4421 44.4408C47.4581 41.4248 49.958 38.182 51.8939 34.9045C52.3453 36.0673 52.7113 37.2124 52.9903 38.3284C54.4155 44.0291 53.4816 48.4108 50.9461 50.9462C48.4107 53.4816 44.029 54.4155 38.3283 52.9903C37.2122 52.7113 36.0668 52.3452 34.9039 51.8937ZM53.6967 31.5022C55.5682 35.4866 56.5819 39.4239 56.6516 42.969C58.2472 39.4755 59.1364 35.5916 59.1364 31.5C59.1364 27.4096 58.2477 23.5267 56.6529 20.0339C56.583 23.5796 55.5688 27.5174 53.6967 31.5022ZM42.972 6.34978C39.4258 6.4192 35.4871 7.43329 31.5013 9.30571C27.5146 7.43284 23.5749 6.41873 20.028 6.34979C23.5223 4.7533 27.4072 3.86364 31.5 3.86364C35.5928 3.86364 39.4777 4.7533 42.972 6.34978ZM34.9036 11.1084C36.0671 10.6566 37.213 10.2903 38.3297 10.0111C44.0304 8.58596 48.4121 9.51985 50.9475 12.0553C53.4829 14.5907 54.4168 18.9724 52.9916 24.6731C52.7124 25.79 52.3461 26.936 51.8941 28.0997C49.9581 24.8213 47.4576 21.5775 44.4408 18.5607C41.4245 15.5445 38.1814 13.0443 34.9036 11.1084ZM28.0991 11.1084C26.9356 10.6566 25.7897 10.2904 24.6731 10.0112C18.9724 8.58602 14.5907 9.51991 12.0553 12.0553C9.51985 14.5907 8.58596 18.9725 10.0111 24.6732C10.2903 25.79 10.6567 26.936 11.1086 28.0997C13.0447 24.8213 15.5452 21.5775 18.562 18.5607C21.5782 15.5444 24.8214 13.0443 28.0991 11.1084Z"/>
<path d="M94.1473 11.7996C97.2833 11.7996 99.7286 12.6582 101.483 14.3756C103.275 16.0556 104.171 18.4076 104.171 21.4316C104.171 22.9996 103.835 24.4929 103.163 25.9116C102.491 27.3302 101.502 28.4876 100.195 29.3836C98.8886 30.2422 97.2646 30.7276 95.3233 30.8396L95.0993 29.7196C96.4806 29.7196 97.8246 29.9249 99.1313 30.3356C100.475 30.7089 101.67 31.3249 102.715 32.1836C103.761 33.0422 104.601 34.1249 105.235 35.4316C105.87 36.7009 106.187 38.2502 106.187 40.0796C106.187 42.0209 105.851 43.7009 105.179 45.1196C104.545 46.5009 103.667 47.6209 102.547 48.4796C101.465 49.3382 100.214 49.9729 98.7953 50.3836C97.3766 50.7942 95.9019 50.9996 94.3713 50.9996H79.3073C78.8593 50.9996 78.4673 50.8316 78.1313 50.4956C77.7953 50.1596 77.6273 49.7676 77.6273 49.3196V13.4796C77.6273 13.0316 77.7953 12.6396 78.1313 12.3036C78.4673 11.9676 78.8593 11.7996 79.3073 11.7996H94.1473ZM93.6993 15.1036H80.5393L81.2113 14.0956V29.9436L80.5953 29.1036H93.6993C95.6406 29.0662 97.2646 28.4316 98.5713 27.1996C99.9153 25.9676 100.587 24.1382 100.587 21.7116C100.587 19.6582 99.9899 18.0529 98.7953 16.8956C97.6006 15.7009 95.9019 15.1036 93.6993 15.1036ZM94.0913 32.4636H80.9313L81.2113 32.1276V48.1996L80.8753 47.6956H94.2033C96.5926 47.6956 98.5899 47.0982 100.195 45.9036C101.801 44.6716 102.603 42.7302 102.603 40.0796C102.603 38.2129 102.211 36.7196 101.427 35.5996C100.643 34.4796 99.5979 33.6769 98.2913 33.1916C96.9846 32.7062 95.5846 32.4636 94.0913 32.4636Z"/>
<path d="M134.656 22.5516C135.141 22.5516 135.533 22.7196 135.832 23.0556C136.168 23.3916 136.336 23.7836 136.336 24.2316V40.0236C136.336 43.7196 135.29 46.5382 133.2 48.4796C131.109 50.4209 128.29 51.3916 124.744 51.3916C121.234 51.3916 118.434 50.4209 116.344 48.4796C114.29 46.5382 113.264 43.7196 113.264 40.0236V24.2316C113.264 23.7836 113.413 23.3916 113.712 23.0556C114.048 22.7196 114.458 22.5516 114.944 22.5516C115.429 22.5516 115.821 22.7196 116.12 23.0556C116.456 23.3916 116.624 23.7836 116.624 24.2316V40.0236C116.624 42.7116 117.333 44.7649 118.752 46.1836C120.208 47.5649 122.205 48.2556 124.744 48.2556C127.32 48.2556 129.336 47.5649 130.792 46.1836C132.248 44.7649 132.976 42.7116 132.976 40.0236V24.2316C132.976 23.7836 133.125 23.3916 133.424 23.0556C133.722 22.7196 134.133 22.5516 134.656 22.5516Z"/>
<path d="M156.528 21.7116C158.208 21.7116 159.757 22.0102 161.176 22.6076C162.594 23.1676 163.826 23.9142 164.872 24.8476C165.954 25.7436 166.794 26.7142 167.392 27.7596C167.989 28.7676 168.288 29.7382 168.288 30.6716L167.336 29.3276V24.1196C167.336 23.6342 167.485 23.2236 167.784 22.8876C168.12 22.5516 168.53 22.3836 169.016 22.3836C169.538 22.3836 169.949 22.5516 170.248 22.8876C170.546 23.2236 170.696 23.6342 170.696 24.1196V48.3676C170.696 51.3542 170.08 53.8742 168.848 55.9276C167.616 57.9809 165.936 59.5302 163.808 60.5756C161.717 61.6582 159.328 62.1996 156.64 62.1996C155.333 62.1996 153.952 62.0316 152.496 61.6956C151.077 61.3596 149.845 60.9302 148.8 60.4076C147.792 59.8849 147.232 59.3436 147.12 58.7836C146.821 58.4476 146.672 58.1116 146.672 57.7756C146.709 57.4769 146.877 57.2156 147.176 56.9916C147.549 56.7302 147.941 56.6929 148.352 56.8796C148.762 57.1036 149.378 57.3836 150.2 57.7196C150.573 57.8316 151.077 57.9996 151.712 58.2236C152.346 58.4476 153.093 58.6342 153.952 58.7836C154.848 58.9702 155.781 59.0636 156.752 59.0636C160.112 59.0636 162.706 58.0929 164.536 56.1516C166.402 54.2476 167.336 51.7276 167.336 48.5916V43.2156L167.952 43.3836C167.616 44.7276 167.056 45.9036 166.272 46.9116C165.525 47.9196 164.629 48.7782 163.584 49.4876C162.538 50.1596 161.4 50.6636 160.168 50.9996C158.973 51.3729 157.778 51.5596 156.584 51.5596C154.008 51.5596 151.693 50.9062 149.64 49.5996C147.586 48.2929 145.944 46.5196 144.712 44.2796C143.517 42.0396 142.92 39.4822 142.92 36.6076C142.92 33.7702 143.517 31.2316 144.712 28.9916C145.944 26.7142 147.568 24.9409 149.584 23.6716C151.637 22.3649 153.952 21.7116 156.528 21.7116ZM156.92 24.8476C154.866 24.8476 153.018 25.3702 151.376 26.4156C149.77 27.4236 148.501 28.8236 147.568 30.6156C146.672 32.3702 146.224 34.3676 146.224 36.6076C146.224 38.8476 146.672 40.8636 147.568 42.6556C148.501 44.4476 149.77 45.8662 151.376 46.9116C153.018 47.9196 154.866 48.4236 156.92 48.4236C158.973 48.4236 160.802 47.9196 162.408 46.9116C164.013 45.9036 165.282 44.5222 166.216 42.7676C167.149 40.9756 167.616 38.9222 167.616 36.6076C167.616 34.2929 167.149 32.2582 166.216 30.5036C165.282 28.7116 164.013 27.3302 162.408 26.3596C160.802 25.3516 158.973 24.8476 156.92 24.8476Z"/>
<path d="M196.905 11.7996C200.041 11.7996 202.486 12.6582 204.241 14.3756C206.033 16.0556 206.929 18.4076 206.929 21.4316C206.929 22.9996 206.593 24.4929 205.921 25.9116C205.249 27.3302 204.26 28.4876 202.953 29.3836C201.646 30.2422 200.022 30.7276 198.081 30.8396L197.857 29.7196C199.238 29.7196 200.582 29.9249 201.889 30.3356C203.233 30.7089 204.428 31.3249 205.473 32.1836C206.518 33.0422 207.358 34.1249 207.993 35.4316C208.628 36.7009 208.945 38.2502 208.945 40.0796C208.945 42.0209 208.609 43.7009 207.937 45.1196C207.302 46.5009 206.425 47.6209 205.305 48.4796C204.222 49.3382 202.972 49.9729 201.553 50.3836C200.134 50.7942 198.66 50.9996 197.129 50.9996H182.065C181.617 50.9996 181.225 50.8316 180.889 50.4956C180.553 50.1596 180.385 49.7676 180.385 49.3196V13.4796C180.385 13.0316 180.553 12.6396 180.889 12.3036C181.225 11.9676 181.617 11.7996 182.065 11.7996H196.905ZM196.457 15.1036H183.297L183.969 14.0956V29.9436L183.353 29.1036H196.457C198.398 29.0662 200.022 28.4316 201.329 27.1996C202.673 25.9676 203.345 24.1382 203.345 21.7116C203.345 19.6582 202.748 18.0529 201.553 16.8956C200.358 15.7009 198.66 15.1036 196.457 15.1036ZM196.849 32.4636H183.689L183.969 32.1276V48.1996L183.633 47.6956H196.961C199.35 47.6956 201.348 47.0982 202.953 45.9036C204.558 44.6716 205.361 42.7302 205.361 40.0796C205.361 38.2129 204.969 36.7196 204.185 35.5996C203.401 34.4796 202.356 33.6769 201.049 33.1916C199.742 32.7062 198.342 32.4636 196.849 32.4636Z"/>
<path d="M239.486 22.3836C239.971 22.3836 240.363 22.5516 240.662 22.8876C240.998 23.2236 241.166 23.6342 241.166 24.1196V49.3196C241.166 49.7676 240.998 50.1596 240.662 50.4956C240.326 50.8316 239.934 50.9996 239.486 50.9996C239 50.9996 238.59 50.8316 238.254 50.4956C237.955 50.1596 237.806 49.7676 237.806 49.3196V42.6556L238.758 42.2076C238.758 43.2529 238.459 44.3169 237.862 45.3996C237.302 46.4822 236.518 47.4902 235.51 48.4236C234.502 49.3569 233.307 50.1222 231.926 50.7196C230.582 51.2796 229.126 51.5596 227.558 51.5596C225.019 51.5596 222.742 50.9062 220.726 49.5996C218.747 48.2929 217.179 46.5009 216.022 44.2236C214.902 41.9462 214.342 39.3889 214.342 36.5516C214.342 33.6396 214.92 31.0822 216.078 28.8796C217.235 26.6396 218.803 24.8849 220.782 23.6156C222.76 22.3462 225 21.7116 227.502 21.7116C229.107 21.7116 230.6 21.9916 231.982 22.5516C233.4 23.1116 234.632 23.8769 235.678 24.8476C236.723 25.8182 237.526 26.9382 238.086 28.2076C238.683 29.4396 238.982 30.7276 238.982 32.0716L237.806 31.2316V24.1196C237.806 23.6342 237.955 23.2236 238.254 22.8876C238.59 22.5516 239 22.3836 239.486 22.3836ZM227.838 48.4236C229.816 48.4236 231.571 47.9196 233.102 46.9116C234.632 45.8662 235.827 44.4476 236.686 42.6556C237.582 40.8262 238.03 38.7916 238.03 36.5516C238.03 34.3489 237.582 32.3702 236.686 30.6156C235.827 28.8609 234.632 27.4609 233.102 26.4156C231.571 25.3702 229.816 24.8476 227.838 24.8476C225.896 24.8476 224.142 25.3516 222.574 26.3596C221.043 27.3676 219.83 28.7489 218.934 30.5036C218.075 32.2582 217.646 34.2742 217.646 36.5516C217.646 38.7916 218.075 40.8262 218.934 42.6556C219.83 44.4476 221.043 45.8662 222.574 46.9116C224.104 47.9196 225.859 48.4236 227.838 48.4236Z"/>
<path d="M248.359 46.4636C248.06 46.0156 247.911 45.5862 247.911 45.1756C247.948 44.7276 248.191 44.3729 248.639 44.1116C248.937 43.8502 249.273 43.7382 249.647 43.7756C250.057 43.8129 250.431 43.9996 250.767 44.3356C251.775 45.6422 252.988 46.7062 254.407 47.5276C255.863 48.3116 257.58 48.7036 259.559 48.7036C260.604 48.7036 261.631 48.5356 262.639 48.1996C263.684 47.8262 264.543 47.2849 265.215 46.5756C265.887 45.8289 266.223 44.8956 266.223 43.7756C266.223 42.6182 265.887 41.6849 265.215 40.9756C264.543 40.2662 263.665 39.7062 262.583 39.2956C261.537 38.8849 260.417 38.5302 259.223 38.2316C257.953 37.8956 256.721 37.5222 255.527 37.1116C254.332 36.6636 253.268 36.1222 252.335 35.4876C251.439 34.8156 250.711 34.0129 250.151 33.0796C249.591 32.1462 249.311 31.0076 249.311 29.6636C249.311 28.0956 249.74 26.7142 250.599 25.5196C251.457 24.3249 252.615 23.3916 254.071 22.7196C255.564 22.0476 257.244 21.7116 259.111 21.7116C260.044 21.7116 261.052 21.8422 262.135 22.1036C263.217 22.3276 264.281 22.7196 265.327 23.2796C266.372 23.8396 267.305 24.6049 268.127 25.5756C268.463 25.9116 268.631 26.3036 268.631 26.7516C268.631 27.1622 268.444 27.5356 268.071 27.8716C267.772 28.0956 267.417 28.2076 267.007 28.2076C266.633 28.2076 266.316 28.0582 266.055 27.7596C265.159 26.7516 264.095 25.9862 262.863 25.4636C261.631 24.9409 260.305 24.6796 258.887 24.6796C257.804 24.6796 256.777 24.8662 255.807 25.2396C254.873 25.5756 254.089 26.0982 253.455 26.8076C252.82 27.5169 252.503 28.4502 252.503 29.6076C252.577 30.6902 252.951 31.5676 253.623 32.2396C254.332 32.9116 255.247 33.4716 256.367 33.9196C257.524 34.3676 258.812 34.7782 260.231 35.1516C261.425 35.4502 262.564 35.8049 263.647 36.2156C264.767 36.6262 265.737 37.1489 266.559 37.7836C267.417 38.3809 268.089 39.1462 268.575 40.0796C269.097 41.0129 269.359 42.1889 269.359 43.6076C269.359 45.2502 268.892 46.6689 267.959 47.8636C267.063 49.0582 265.849 49.9729 264.319 50.6076C262.788 51.2422 261.089 51.5596 259.223 51.5596C257.207 51.5596 255.247 51.1676 253.343 50.3836C251.476 49.5996 249.815 48.2929 248.359 46.4636Z"/>
<path d="M289.281 22.1596C291.633 22.1596 293.537 22.6636 294.993 23.6716C296.449 24.6796 297.513 26.0422 298.185 27.7596C298.894 29.4769 299.249 31.3809 299.249 33.4716V49.3196C299.249 49.7676 299.081 50.1596 298.745 50.4956C298.409 50.8316 298.017 50.9996 297.569 50.9996C297.046 50.9996 296.635 50.8316 296.337 50.4956C296.038 50.1596 295.889 49.7676 295.889 49.3196V33.4716C295.889 31.9409 295.646 30.5596 295.161 29.3276C294.713 28.0956 293.966 27.1249 292.921 26.4156C291.875 25.6689 290.475 25.2956 288.721 25.2956C287.153 25.2956 285.659 25.6689 284.241 26.4156C282.859 27.1249 281.739 28.0956 280.881 29.3276C280.022 30.5596 279.593 31.9409 279.593 33.4716V49.3196C279.593 49.7676 279.425 50.1596 279.089 50.4956C278.753 50.8316 278.361 50.9996 277.913 50.9996C277.39 50.9996 276.979 50.8316 276.681 50.4956C276.382 50.1596 276.233 49.7676 276.233 49.3196V11.2396C276.233 10.7916 276.382 10.3996 276.681 10.0636C277.017 9.72757 277.427 9.55957 277.913 9.55957C278.398 9.55957 278.79 9.72757 279.089 10.0636C279.425 10.3996 279.593 10.7916 279.593 11.2396V29.3836L278.305 31.3436C278.379 30.1862 278.734 29.0662 279.369 27.9836C280.041 26.8636 280.899 25.8742 281.945 25.0156C282.99 24.1196 284.147 23.4289 285.417 22.9436C286.686 22.4209 287.974 22.1596 289.281 22.1596Z"/>
</mask>
<path fill-rule="evenodd" clip-rule="evenodd" d="M52.9378 9.80501C47.4288 4.361 39.8569 1 31.5 1C14.6553 1 1 14.6553 1 31.5C1 48.3447 14.6553 62 31.5 62C39.8534 62 47.4225 58.6418 52.9308 53.2019C52.9767 53.1575 53.0222 53.1127 53.0675 53.0675C53.1127 53.0223 53.1574 52.9768 53.2018 52.9309C58.6418 47.4225 62 39.8534 62 31.5C62 23.1453 58.6408 15.5752 53.1993 10.0666C53.1563 10.0221 53.1128 9.97787 53.0688 9.93395C53.0254 9.89057 52.9818 9.84759 52.9378 9.80501ZM31.5 59.1364C35.5915 59.1364 39.4754 58.2472 42.9689 56.6517C39.4235 56.5819 35.4859 55.5681 31.5013 53.6964C27.5157 55.5686 23.5772 56.5824 20.0311 56.6516C23.5246 58.2472 27.4085 59.1364 31.5 59.1364ZM6.35107 42.9749C6.41976 39.4282 7.43355 35.4887 9.30603 31.5022C7.43293 27.5152 6.41869 23.5752 6.34973 20.0281C4.75328 23.5224 3.86364 27.4073 3.86364 31.5C3.86364 35.5939 4.75378 39.4798 6.35107 42.9749ZM11.1089 34.9045C10.6575 36.0673 10.2915 37.2124 10.0125 38.3283C8.58733 44.029 9.52122 48.4107 12.0566 50.9461C14.5921 53.4816 18.9738 54.4155 24.6745 52.9903C25.7906 52.7112 26.9359 52.3452 28.0988 51.8937C24.8207 49.9577 21.5772 47.4574 18.5607 44.4408C15.5447 41.4248 13.0447 38.182 11.1089 34.9045ZM31.5013 50.3509C27.8443 48.4555 24.1253 45.7628 20.682 42.3195C17.2393 38.8768 14.5469 35.1585 12.6516 31.5021C14.5469 27.8448 17.2398 24.1255 20.6833 20.682C24.1262 17.2391 27.8448 14.5466 31.5013 12.6513C35.1579 14.5466 38.8765 17.2391 42.3194 20.682C45.763 24.1256 48.4558 27.8448 50.3512 31.5021C48.4559 35.1584 45.7635 38.8767 42.3208 42.3194C38.8775 45.7628 35.1584 48.4555 31.5013 50.3509ZM34.9039 51.8937C38.182 49.9577 41.4255 47.4573 44.4421 44.4408C47.4581 41.4248 49.958 38.182 51.8939 34.9045C52.3453 36.0673 52.7113 37.2124 52.9903 38.3284C54.4155 44.0291 53.4816 48.4108 50.9461 50.9462C48.4107 53.4816 44.029 54.4155 38.3283 52.9903C37.2122 52.7113 36.0668 52.3452 34.9039 51.8937ZM53.6967 31.5022C55.5682 35.4866 56.5819 39.4239 56.6516 42.969C58.2472 39.4755 59.1364 35.5916 59.1364 31.5C59.1364 27.4096 58.2477 23.5267 56.6529 20.0339C56.583 23.5796 55.5688 27.5174 53.6967 31.5022ZM42.972 6.34978C39.4258 6.4192 35.4871 7.43329 31.5013 9.30571C27.5146 7.43284 23.5749 6.41873 20.028 6.34979C23.5223 4.7533 27.4072 3.86364 31.5 3.86364C35.5928 3.86364 39.4777 4.7533 42.972 6.34978ZM34.9036 11.1084C36.0671 10.6566 37.213 10.2903 38.3297 10.0111C44.0304 8.58596 48.4121 9.51985 50.9475 12.0553C53.4829 14.5907 54.4168 18.9724 52.9916 24.6731C52.7124 25.79 52.3461 26.936 51.8941 28.0997C49.9581 24.8213 47.4576 21.5775 44.4408 18.5607C41.4245 15.5445 38.1814 13.0443 34.9036 11.1084ZM28.0991 11.1084C26.9356 10.6566 25.7897 10.2904 24.6731 10.0112C18.9724 8.58602 14.5907 9.51991 12.0553 12.0553C9.51985 14.5907 8.58596 18.9725 10.0111 24.6732C10.2903 25.79 10.6567 26.936 11.1086 28.0997C13.0447 24.8213 15.5452 21.5775 18.562 18.5607C21.5782 15.5444 24.8214 13.0443 28.0991 11.1084Z" fill="#756ADE"/>
<path d="M94.1473 11.7996C97.2833 11.7996 99.7286 12.6582 101.483 14.3756C103.275 16.0556 104.171 18.4076 104.171 21.4316C104.171 22.9996 103.835 24.4929 103.163 25.9116C102.491 27.3302 101.502 28.4876 100.195 29.3836C98.8886 30.2422 97.2646 30.7276 95.3233 30.8396L95.0993 29.7196C96.4806 29.7196 97.8246 29.9249 99.1313 30.3356C100.475 30.7089 101.67 31.3249 102.715 32.1836C103.761 33.0422 104.601 34.1249 105.235 35.4316C105.87 36.7009 106.187 38.2502 106.187 40.0796C106.187 42.0209 105.851 43.7009 105.179 45.1196C104.545 46.5009 103.667 47.6209 102.547 48.4796C101.465 49.3382 100.214 49.9729 98.7953 50.3836C97.3766 50.7942 95.9019 50.9996 94.3713 50.9996H79.3073C78.8593 50.9996 78.4673 50.8316 78.1313 50.4956C77.7953 50.1596 77.6273 49.7676 77.6273 49.3196V13.4796C77.6273 13.0316 77.7953 12.6396 78.1313 12.3036C78.4673 11.9676 78.8593 11.7996 79.3073 11.7996H94.1473ZM93.6993 15.1036H80.5393L81.2113 14.0956V29.9436L80.5953 29.1036H93.6993C95.6406 29.0662 97.2646 28.4316 98.5713 27.1996C99.9153 25.9676 100.587 24.1382 100.587 21.7116C100.587 19.6582 99.9899 18.0529 98.7953 16.8956C97.6006 15.7009 95.9019 15.1036 93.6993 15.1036ZM94.0913 32.4636H80.9313L81.2113 32.1276V48.1996L80.8753 47.6956H94.2033C96.5926 47.6956 98.5899 47.0982 100.195 45.9036C101.801 44.6716 102.603 42.7302 102.603 40.0796C102.603 38.2129 102.211 36.7196 101.427 35.5996C100.643 34.4796 99.5979 33.6769 98.2913 33.1916C96.9846 32.7062 95.5846 32.4636 94.0913 32.4636Z" fill="url(#paint0_linear_3207_10)"/>
<path d="M134.656 22.5516C135.141 22.5516 135.533 22.7196 135.832 23.0556C136.168 23.3916 136.336 23.7836 136.336 24.2316V40.0236C136.336 43.7196 135.29 46.5382 133.2 48.4796C131.109 50.4209 128.29 51.3916 124.744 51.3916C121.234 51.3916 118.434 50.4209 116.344 48.4796C114.29 46.5382 113.264 43.7196 113.264 40.0236V24.2316C113.264 23.7836 113.413 23.3916 113.712 23.0556C114.048 22.7196 114.458 22.5516 114.944 22.5516C115.429 22.5516 115.821 22.7196 116.12 23.0556C116.456 23.3916 116.624 23.7836 116.624 24.2316V40.0236C116.624 42.7116 117.333 44.7649 118.752 46.1836C120.208 47.5649 122.205 48.2556 124.744 48.2556C127.32 48.2556 129.336 47.5649 130.792 46.1836C132.248 44.7649 132.976 42.7116 132.976 40.0236V24.2316C132.976 23.7836 133.125 23.3916 133.424 23.0556C133.722 22.7196 134.133 22.5516 134.656 22.5516Z" fill="url(#paint1_linear_3207_10)"/>
<path d="M156.528 21.7116C158.208 21.7116 159.757 22.0102 161.176 22.6076C162.594 23.1676 163.826 23.9142 164.872 24.8476C165.954 25.7436 166.794 26.7142 167.392 27.7596C167.989 28.7676 168.288 29.7382 168.288 30.6716L167.336 29.3276V24.1196C167.336 23.6342 167.485 23.2236 167.784 22.8876C168.12 22.5516 168.53 22.3836 169.016 22.3836C169.538 22.3836 169.949 22.5516 170.248 22.8876C170.546 23.2236 170.696 23.6342 170.696 24.1196V48.3676C170.696 51.3542 170.08 53.8742 168.848 55.9276C167.616 57.9809 165.936 59.5302 163.808 60.5756C161.717 61.6582 159.328 62.1996 156.64 62.1996C155.333 62.1996 153.952 62.0316 152.496 61.6956C151.077 61.3596 149.845 60.9302 148.8 60.4076C147.792 59.8849 147.232 59.3436 147.12 58.7836C146.821 58.4476 146.672 58.1116 146.672 57.7756C146.709 57.4769 146.877 57.2156 147.176 56.9916C147.549 56.7302 147.941 56.6929 148.352 56.8796C148.762 57.1036 149.378 57.3836 150.2 57.7196C150.573 57.8316 151.077 57.9996 151.712 58.2236C152.346 58.4476 153.093 58.6342 153.952 58.7836C154.848 58.9702 155.781 59.0636 156.752 59.0636C160.112 59.0636 162.706 58.0929 164.536 56.1516C166.402 54.2476 167.336 51.7276 167.336 48.5916V43.2156L167.952 43.3836C167.616 44.7276 167.056 45.9036 166.272 46.9116C165.525 47.9196 164.629 48.7782 163.584 49.4876C162.538 50.1596 161.4 50.6636 160.168 50.9996C158.973 51.3729 157.778 51.5596 156.584 51.5596C154.008 51.5596 151.693 50.9062 149.64 49.5996C147.586 48.2929 145.944 46.5196 144.712 44.2796C143.517 42.0396 142.92 39.4822 142.92 36.6076C142.92 33.7702 143.517 31.2316 144.712 28.9916C145.944 26.7142 147.568 24.9409 149.584 23.6716C151.637 22.3649 153.952 21.7116 156.528 21.7116ZM156.92 24.8476C154.866 24.8476 153.018 25.3702 151.376 26.4156C149.77 27.4236 148.501 28.8236 147.568 30.6156C146.672 32.3702 146.224 34.3676 146.224 36.6076C146.224 38.8476 146.672 40.8636 147.568 42.6556C148.501 44.4476 149.77 45.8662 151.376 46.9116C153.018 47.9196 154.866 48.4236 156.92 48.4236C158.973 48.4236 160.802 47.9196 162.408 46.9116C164.013 45.9036 165.282 44.5222 166.216 42.7676C167.149 40.9756 167.616 38.9222 167.616 36.6076C167.616 34.2929 167.149 32.2582 166.216 30.5036C165.282 28.7116 164.013 27.3302 162.408 26.3596C160.802 25.3516 158.973 24.8476 156.92 24.8476Z" fill="url(#paint2_linear_3207_10)"/>
<path d="M196.905 11.7996C200.041 11.7996 202.486 12.6582 204.241 14.3756C206.033 16.0556 206.929 18.4076 206.929 21.4316C206.929 22.9996 206.593 24.4929 205.921 25.9116C205.249 27.3302 204.26 28.4876 202.953 29.3836C201.646 30.2422 200.022 30.7276 198.081 30.8396L197.857 29.7196C199.238 29.7196 200.582 29.9249 201.889 30.3356C203.233 30.7089 204.428 31.3249 205.473 32.1836C206.518 33.0422 207.358 34.1249 207.993 35.4316C208.628 36.7009 208.945 38.2502 208.945 40.0796C208.945 42.0209 208.609 43.7009 207.937 45.1196C207.302 46.5009 206.425 47.6209 205.305 48.4796C204.222 49.3382 202.972 49.9729 201.553 50.3836C200.134 50.7942 198.66 50.9996 197.129 50.9996H182.065C181.617 50.9996 181.225 50.8316 180.889 50.4956C180.553 50.1596 180.385 49.7676 180.385 49.3196V13.4796C180.385 13.0316 180.553 12.6396 180.889 12.3036C181.225 11.9676 181.617 11.7996 182.065 11.7996H196.905ZM196.457 15.1036H183.297L183.969 14.0956V29.9436L183.353 29.1036H196.457C198.398 29.0662 200.022 28.4316 201.329 27.1996C202.673 25.9676 203.345 24.1382 203.345 21.7116C203.345 19.6582 202.748 18.0529 201.553 16.8956C200.358 15.7009 198.66 15.1036 196.457 15.1036ZM196.849 32.4636H183.689L183.969 32.1276V48.1996L183.633 47.6956H196.961C199.35 47.6956 201.348 47.0982 202.953 45.9036C204.558 44.6716 205.361 42.7302 205.361 40.0796C205.361 38.2129 204.969 36.7196 204.185 35.5996C203.401 34.4796 202.356 33.6769 201.049 33.1916C199.742 32.7062 198.342 32.4636 196.849 32.4636Z" fill="url(#paint3_linear_3207_10)"/>
<path d="M239.486 22.3836C239.971 22.3836 240.363 22.5516 240.662 22.8876C240.998 23.2236 241.166 23.6342 241.166 24.1196V49.3196C241.166 49.7676 240.998 50.1596 240.662 50.4956C240.326 50.8316 239.934 50.9996 239.486 50.9996C239 50.9996 238.59 50.8316 238.254 50.4956C237.955 50.1596 237.806 49.7676 237.806 49.3196V42.6556L238.758 42.2076C238.758 43.2529 238.459 44.3169 237.862 45.3996C237.302 46.4822 236.518 47.4902 235.51 48.4236C234.502 49.3569 233.307 50.1222 231.926 50.7196C230.582 51.2796 229.126 51.5596 227.558 51.5596C225.019 51.5596 222.742 50.9062 220.726 49.5996C218.747 48.2929 217.179 46.5009 216.022 44.2236C214.902 41.9462 214.342 39.3889 214.342 36.5516C214.342 33.6396 214.92 31.0822 216.078 28.8796C217.235 26.6396 218.803 24.8849 220.782 23.6156C222.76 22.3462 225 21.7116 227.502 21.7116C229.107 21.7116 230.6 21.9916 231.982 22.5516C233.4 23.1116 234.632 23.8769 235.678 24.8476C236.723 25.8182 237.526 26.9382 238.086 28.2076C238.683 29.4396 238.982 30.7276 238.982 32.0716L237.806 31.2316V24.1196C237.806 23.6342 237.955 23.2236 238.254 22.8876C238.59 22.5516 239 22.3836 239.486 22.3836ZM227.838 48.4236C229.816 48.4236 231.571 47.9196 233.102 46.9116C234.632 45.8662 235.827 44.4476 236.686 42.6556C237.582 40.8262 238.03 38.7916 238.03 36.5516C238.03 34.3489 237.582 32.3702 236.686 30.6156C235.827 28.8609 234.632 27.4609 233.102 26.4156C231.571 25.3702 229.816 24.8476 227.838 24.8476C225.896 24.8476 224.142 25.3516 222.574 26.3596C221.043 27.3676 219.83 28.7489 218.934 30.5036C218.075 32.2582 217.646 34.2742 217.646 36.5516C217.646 38.7916 218.075 40.8262 218.934 42.6556C219.83 44.4476 221.043 45.8662 222.574 46.9116C224.104 47.9196 225.859 48.4236 227.838 48.4236Z" fill="url(#paint4_linear_3207_10)"/>
<path d="M248.359 46.4636C248.06 46.0156 247.911 45.5862 247.911 45.1756C247.948 44.7276 248.191 44.3729 248.639 44.1116C248.937 43.8502 249.273 43.7382 249.647 43.7756C250.057 43.8129 250.431 43.9996 250.767 44.3356C251.775 45.6422 252.988 46.7062 254.407 47.5276C255.863 48.3116 257.58 48.7036 259.559 48.7036C260.604 48.7036 261.631 48.5356 262.639 48.1996C263.684 47.8262 264.543 47.2849 265.215 46.5756C265.887 45.8289 266.223 44.8956 266.223 43.7756C266.223 42.6182 265.887 41.6849 265.215 40.9756C264.543 40.2662 263.665 39.7062 262.583 39.2956C261.537 38.8849 260.417 38.5302 259.223 38.2316C257.953 37.8956 256.721 37.5222 255.527 37.1116C254.332 36.6636 253.268 36.1222 252.335 35.4876C251.439 34.8156 250.711 34.0129 250.151 33.0796C249.591 32.1462 249.311 31.0076 249.311 29.6636C249.311 28.0956 249.74 26.7142 250.599 25.5196C251.457 24.3249 252.615 23.3916 254.071 22.7196C255.564 22.0476 257.244 21.7116 259.111 21.7116C260.044 21.7116 261.052 21.8422 262.135 22.1036C263.217 22.3276 264.281 22.7196 265.327 23.2796C266.372 23.8396 267.305 24.6049 268.127 25.5756C268.463 25.9116 268.631 26.3036 268.631 26.7516C268.631 27.1622 268.444 27.5356 268.071 27.8716C267.772 28.0956 267.417 28.2076 267.007 28.2076C266.633 28.2076 266.316 28.0582 266.055 27.7596C265.159 26.7516 264.095 25.9862 262.863 25.4636C261.631 24.9409 260.305 24.6796 258.887 24.6796C257.804 24.6796 256.777 24.8662 255.807 25.2396C254.873 25.5756 254.089 26.0982 253.455 26.8076C252.82 27.5169 252.503 28.4502 252.503 29.6076C252.577 30.6902 252.951 31.5676 253.623 32.2396C254.332 32.9116 255.247 33.4716 256.367 33.9196C257.524 34.3676 258.812 34.7782 260.231 35.1516C261.425 35.4502 262.564 35.8049 263.647 36.2156C264.767 36.6262 265.737 37.1489 266.559 37.7836C267.417 38.3809 268.089 39.1462 268.575 40.0796C269.097 41.0129 269.359 42.1889 269.359 43.6076C269.359 45.2502 268.892 46.6689 267.959 47.8636C267.063 49.0582 265.849 49.9729 264.319 50.6076C262.788 51.2422 261.089 51.5596 259.223 51.5596C257.207 51.5596 255.247 51.1676 253.343 50.3836C251.476 49.5996 249.815 48.2929 248.359 46.4636Z" fill="url(#paint5_linear_3207_10)"/>
<path d="M289.281 22.1596C291.633 22.1596 293.537 22.6636 294.993 23.6716C296.449 24.6796 297.513 26.0422 298.185 27.7596C298.894 29.4769 299.249 31.3809 299.249 33.4716V49.3196C299.249 49.7676 299.081 50.1596 298.745 50.4956C298.409 50.8316 298.017 50.9996 297.569 50.9996C297.046 50.9996 296.635 50.8316 296.337 50.4956C296.038 50.1596 295.889 49.7676 295.889 49.3196V33.4716C295.889 31.9409 295.646 30.5596 295.161 29.3276C294.713 28.0956 293.966 27.1249 292.921 26.4156C291.875 25.6689 290.475 25.2956 288.721 25.2956C287.153 25.2956 285.659 25.6689 284.241 26.4156C282.859 27.1249 281.739 28.0956 280.881 29.3276C280.022 30.5596 279.593 31.9409 279.593 33.4716V49.3196C279.593 49.7676 279.425 50.1596 279.089 50.4956C278.753 50.8316 278.361 50.9996 277.913 50.9996C277.39 50.9996 276.979 50.8316 276.681 50.4956C276.382 50.1596 276.233 49.7676 276.233 49.3196V11.2396C276.233 10.7916 276.382 10.3996 276.681 10.0636C277.017 9.72757 277.427 9.55957 277.913 9.55957C278.398 9.55957 278.79 9.72757 279.089 10.0636C279.425 10.3996 279.593 10.7916 279.593 11.2396V29.3836L278.305 31.3436C278.379 30.1862 278.734 29.0662 279.369 27.9836C280.041 26.8636 280.899 25.8742 281.945 25.0156C282.99 24.1196 284.147 23.4289 285.417 22.9436C286.686 22.4209 287.974 22.1596 289.281 22.1596Z" fill="url(#paint6_linear_3207_10)"/>
<path fill-rule="evenodd" clip-rule="evenodd" d="M52.9378 9.80501C47.4288 4.361 39.8569 1 31.5 1C14.6553 1 1 14.6553 1 31.5C1 48.3447 14.6553 62 31.5 62C39.8534 62 47.4225 58.6418 52.9308 53.2019C52.9767 53.1575 53.0222 53.1127 53.0675 53.0675C53.1127 53.0223 53.1574 52.9768 53.2018 52.9309C58.6418 47.4225 62 39.8534 62 31.5C62 23.1453 58.6408 15.5752 53.1993 10.0666C53.1563 10.0221 53.1128 9.97787 53.0688 9.93395C53.0254 9.89057 52.9818 9.84759 52.9378 9.80501ZM31.5 59.1364C35.5915 59.1364 39.4754 58.2472 42.9689 56.6517C39.4235 56.5819 35.4859 55.5681 31.5013 53.6964C27.5157 55.5686 23.5772 56.5824 20.0311 56.6516C23.5246 58.2472 27.4085 59.1364 31.5 59.1364ZM6.35107 42.9749C6.41976 39.4282 7.43355 35.4887 9.30603 31.5022C7.43293 27.5152 6.41869 23.5752 6.34973 20.0281C4.75328 23.5224 3.86364 27.4073 3.86364 31.5C3.86364 35.5939 4.75378 39.4798 6.35107 42.9749ZM11.1089 34.9045C10.6575 36.0673 10.2915 37.2124 10.0125 38.3283C8.58733 44.029 9.52122 48.4107 12.0566 50.9461C14.5921 53.4816 18.9738 54.4155 24.6745 52.9903C25.7906 52.7112 26.9359 52.3452 28.0988 51.8937C24.8207 49.9577 21.5772 47.4574 18.5607 44.4408C15.5447 41.4248 13.0447 38.182 11.1089 34.9045ZM31.5013 50.3509C27.8443 48.4555 24.1253 45.7628 20.682 42.3195C17.2393 38.8768 14.5469 35.1585 12.6516 31.5021C14.5469 27.8448 17.2398 24.1255 20.6833 20.682C24.1262 17.2391 27.8448 14.5466 31.5013 12.6513C35.1579 14.5466 38.8765 17.2391 42.3194 20.682C45.763 24.1256 48.4558 27.8448 50.3512 31.5021C48.4559 35.1584 45.7635 38.8767 42.3208 42.3194C38.8775 45.7628 35.1584 48.4555 31.5013 50.3509ZM34.9039 51.8937C38.182 49.9577 41.4255 47.4573 44.4421 44.4408C47.4581 41.4248 49.958 38.182 51.8939 34.9045C52.3453 36.0673 52.7113 37.2124 52.9903 38.3284C54.4155 44.0291 53.4816 48.4108 50.9461 50.9462C48.4107 53.4816 44.029 54.4155 38.3283 52.9903C37.2122 52.7113 36.0668 52.3452 34.9039 51.8937ZM53.6967 31.5022C55.5682 35.4866 56.5819 39.4239 56.6516 42.969C58.2472 39.4755 59.1364 35.5916 59.1364 31.5C59.1364 27.4096 58.2477 23.5267 56.6529 20.0339C56.583 23.5796 55.5688 27.5174 53.6967 31.5022ZM42.972 6.34978C39.4258 6.4192 35.4871 7.43329 31.5013 9.30571C27.5146 7.43284 23.5749 6.41873 20.028 6.34979C23.5223 4.7533 27.4072 3.86364 31.5 3.86364C35.5928 3.86364 39.4777 4.7533 42.972 6.34978ZM34.9036 11.1084C36.0671 10.6566 37.213 10.2903 38.3297 10.0111C44.0304 8.58596 48.4121 9.51985 50.9475 12.0553C53.4829 14.5907 54.4168 18.9724 52.9916 24.6731C52.7124 25.79 52.3461 26.936 51.8941 28.0997C49.9581 24.8213 47.4576 21.5775 44.4408 18.5607C41.4245 15.5445 38.1814 13.0443 34.9036 11.1084ZM28.0991 11.1084C26.9356 10.6566 25.7897 10.2904 24.6731 10.0112C18.9724 8.58602 14.5907 9.51991 12.0553 12.0553C9.51985 14.5907 8.58596 18.9725 10.0111 24.6732C10.2903 25.79 10.6567 26.936 11.1086 28.0997C13.0447 24.8213 15.5452 21.5775 18.562 18.5607C21.5782 15.5444 24.8214 13.0443 28.0991 11.1084Z" stroke="url(#paint7_linear_3207_10)" stroke-width="2" mask="url(#path-1-outside-1_3207_10)"/>
<path d="M94.1473 11.7996C97.2833 11.7996 99.7286 12.6582 101.483 14.3756C103.275 16.0556 104.171 18.4076 104.171 21.4316C104.171 22.9996 103.835 24.4929 103.163 25.9116C102.491 27.3302 101.502 28.4876 100.195 29.3836C98.8886 30.2422 97.2646 30.7276 95.3233 30.8396L95.0993 29.7196C96.4806 29.7196 97.8246 29.9249 99.1313 30.3356C100.475 30.7089 101.67 31.3249 102.715 32.1836C103.761 33.0422 104.601 34.1249 105.235 35.4316C105.87 36.7009 106.187 38.2502 106.187 40.0796C106.187 42.0209 105.851 43.7009 105.179 45.1196C104.545 46.5009 103.667 47.6209 102.547 48.4796C101.465 49.3382 100.214 49.9729 98.7953 50.3836C97.3766 50.7942 95.9019 50.9996 94.3713 50.9996H79.3073C78.8593 50.9996 78.4673 50.8316 78.1313 50.4956C77.7953 50.1596 77.6273 49.7676 77.6273 49.3196V13.4796C77.6273 13.0316 77.7953 12.6396 78.1313 12.3036C78.4673 11.9676 78.8593 11.7996 79.3073 11.7996H94.1473ZM93.6993 15.1036H80.5393L81.2113 14.0956V29.9436L80.5953 29.1036H93.6993C95.6406 29.0662 97.2646 28.4316 98.5713 27.1996C99.9153 25.9676 100.587 24.1382 100.587 21.7116C100.587 19.6582 99.9899 18.0529 98.7953 16.8956C97.6006 15.7009 95.9019 15.1036 93.6993 15.1036ZM94.0913 32.4636H80.9313L81.2113 32.1276V48.1996L80.8753 47.6956H94.2033C96.5926 47.6956 98.5899 47.0982 100.195 45.9036C101.801 44.6716 102.603 42.7302 102.603 40.0796C102.603 38.2129 102.211 36.7196 101.427 35.5996C100.643 34.4796 99.5979 33.6769 98.2913 33.1916C96.9846 32.7062 95.5846 32.4636 94.0913 32.4636Z" stroke="url(#paint8_linear_3207_10)" stroke-width="2" mask="url(#path-1-outside-1_3207_10)"/>
<path d="M134.656 22.5516C135.141 22.5516 135.533 22.7196 135.832 23.0556C136.168 23.3916 136.336 23.7836 136.336 24.2316V40.0236C136.336 43.7196 135.29 46.5382 133.2 48.4796C131.109 50.4209 128.29 51.3916 124.744 51.3916C121.234 51.3916 118.434 50.4209 116.344 48.4796C114.29 46.5382 113.264 43.7196 113.264 40.0236V24.2316C113.264 23.7836 113.413 23.3916 113.712 23.0556C114.048 22.7196 114.458 22.5516 114.944 22.5516C115.429 22.5516 115.821 22.7196 116.12 23.0556C116.456 23.3916 116.624 23.7836 116.624 24.2316V40.0236C116.624 42.7116 117.333 44.7649 118.752 46.1836C120.208 47.5649 122.205 48.2556 124.744 48.2556C127.32 48.2556 129.336 47.5649 130.792 46.1836C132.248 44.7649 132.976 42.7116 132.976 40.0236V24.2316C132.976 23.7836 133.125 23.3916 133.424 23.0556C133.722 22.7196 134.133 22.5516 134.656 22.5516Z" stroke="url(#paint9_linear_3207_10)" stroke-width="2" mask="url(#path-1-outside-1_3207_10)"/>
<path d="M156.528 21.7116C158.208 21.7116 159.757 22.0102 161.176 22.6076C162.594 23.1676 163.826 23.9142 164.872 24.8476C165.954 25.7436 166.794 26.7142 167.392 27.7596C167.989 28.7676 168.288 29.7382 168.288 30.6716L167.336 29.3276V24.1196C167.336 23.6342 167.485 23.2236 167.784 22.8876C168.12 22.5516 168.53 22.3836 169.016 22.3836C169.538 22.3836 169.949 22.5516 170.248 22.8876C170.546 23.2236 170.696 23.6342 170.696 24.1196V48.3676C170.696 51.3542 170.08 53.8742 168.848 55.9276C167.616 57.9809 165.936 59.5302 163.808 60.5756C161.717 61.6582 159.328 62.1996 156.64 62.1996C155.333 62.1996 153.952 62.0316 152.496 61.6956C151.077 61.3596 149.845 60.9302 148.8 60.4076C147.792 59.8849 147.232 59.3436 147.12 58.7836C146.821 58.4476 146.672 58.1116 146.672 57.7756C146.709 57.4769 146.877 57.2156 147.176 56.9916C147.549 56.7302 147.941 56.6929 148.352 56.8796C148.762 57.1036 149.378 57.3836 150.2 57.7196C150.573 57.8316 151.077 57.9996 151.712 58.2236C152.346 58.4476 153.093 58.6342 153.952 58.7836C154.848 58.9702 155.781 59.0636 156.752 59.0636C160.112 59.0636 162.706 58.0929 164.536 56.1516C166.402 54.2476 167.336 51.7276 167.336 48.5916V43.2156L167.952 43.3836C167.616 44.7276 167.056 45.9036 166.272 46.9116C165.525 47.9196 164.629 48.7782 163.584 49.4876C162.538 50.1596 161.4 50.6636 160.168 50.9996C158.973 51.3729 157.778 51.5596 156.584 51.5596C154.008 51.5596 151.693 50.9062 149.64 49.5996C147.586 48.2929 145.944 46.5196 144.712 44.2796C143.517 42.0396 142.92 39.4822 142.92 36.6076C142.92 33.7702 143.517 31.2316 144.712 28.9916C145.944 26.7142 147.568 24.9409 149.584 23.6716C151.637 22.3649 153.952 21.7116 156.528 21.7116ZM156.92 24.8476C154.866 24.8476 153.018 25.3702 151.376 26.4156C149.77 27.4236 148.501 28.8236 147.568 30.6156C146.672 32.3702 146.224 34.3676 146.224 36.6076C146.224 38.8476 146.672 40.8636 147.568 42.6556C148.501 44.4476 149.77 45.8662 151.376 46.9116C153.018 47.9196 154.866 48.4236 156.92 48.4236C158.973 48.4236 160.802 47.9196 162.408 46.9116C164.013 45.9036 165.282 44.5222 166.216 42.7676C167.149 40.9756 167.616 38.9222 167.616 36.6076C167.616 34.2929 167.149 32.2582 166.216 30.5036C165.282 28.7116 164.013 27.3302 162.408 26.3596C160.802 25.3516 158.973 24.8476 156.92 24.8476Z" stroke="url(#paint10_linear_3207_10)" stroke-width="2" mask="url(#path-1-outside-1_3207_10)"/>
<path d="M196.905 11.7996C200.041 11.7996 202.486 12.6582 204.241 14.3756C206.033 16.0556 206.929 18.4076 206.929 21.4316C206.929 22.9996 206.593 24.4929 205.921 25.9116C205.249 27.3302 204.26 28.4876 202.953 29.3836C201.646 30.2422 200.022 30.7276 198.081 30.8396L197.857 29.7196C199.238 29.7196 200.582 29.9249 201.889 30.3356C203.233 30.7089 204.428 31.3249 205.473 32.1836C206.518 33.0422 207.358 34.1249 207.993 35.4316C208.628 36.7009 208.945 38.2502 208.945 40.0796C208.945 42.0209 208.609 43.7009 207.937 45.1196C207.302 46.5009 206.425 47.6209 205.305 48.4796C204.222 49.3382 202.972 49.9729 201.553 50.3836C200.134 50.7942 198.66 50.9996 197.129 50.9996H182.065C181.617 50.9996 181.225 50.8316 180.889 50.4956C180.553 50.1596 180.385 49.7676 180.385 49.3196V13.4796C180.385 13.0316 180.553 12.6396 180.889 12.3036C181.225 11.9676 181.617 11.7996 182.065 11.7996H196.905ZM196.457 15.1036H183.297L183.969 14.0956V29.9436L183.353 29.1036H196.457C198.398 29.0662 200.022 28.4316 201.329 27.1996C202.673 25.9676 203.345 24.1382 203.345 21.7116C203.345 19.6582 202.748 18.0529 201.553 16.8956C200.358 15.7009 198.66 15.1036 196.457 15.1036ZM196.849 32.4636H183.689L183.969 32.1276V48.1996L183.633 47.6956H196.961C199.35 47.6956 201.348 47.0982 202.953 45.9036C204.558 44.6716 205.361 42.7302 205.361 40.0796C205.361 38.2129 204.969 36.7196 204.185 35.5996C203.401 34.4796 202.356 33.6769 201.049 33.1916C199.742 32.7062 198.342 32.4636 196.849 32.4636Z" stroke="url(#paint11_linear_3207_10)" stroke-width="2" mask="url(#path-1-outside-1_3207_10)"/>
<path d="M239.486 22.3836C239.971 22.3836 240.363 22.5516 240.662 22.8876C240.998 23.2236 241.166 23.6342 241.166 24.1196V49.3196C241.166 49.7676 240.998 50.1596 240.662 50.4956C240.326 50.8316 239.934 50.9996 239.486 50.9996C239 50.9996 238.59 50.8316 238.254 50.4956C237.955 50.1596 237.806 49.7676 237.806 49.3196V42.6556L238.758 42.2076C238.758 43.2529 238.459 44.3169 237.862 45.3996C237.302 46.4822 236.518 47.4902 235.51 48.4236C234.502 49.3569 233.307 50.1222 231.926 50.7196C230.582 51.2796 229.126 51.5596 227.558 51.5596C225.019 51.5596 222.742 50.9062 220.726 49.5996C218.747 48.2929 217.179 46.5009 216.022 44.2236C214.902 41.9462 214.342 39.3889 214.342 36.5516C214.342 33.6396 214.92 31.0822 216.078 28.8796C217.235 26.6396 218.803 24.8849 220.782 23.6156C222.76 22.3462 225 21.7116 227.502 21.7116C229.107 21.7116 230.6 21.9916 231.982 22.5516C233.4 23.1116 234.632 23.8769 235.678 24.8476C236.723 25.8182 237.526 26.9382 238.086 28.2076C238.683 29.4396 238.982 30.7276 238.982 32.0716L237.806 31.2316V24.1196C237.806 23.6342 237.955 23.2236 238.254 22.8876C238.59 22.5516 239 22.3836 239.486 22.3836ZM227.838 48.4236C229.816 48.4236 231.571 47.9196 233.102 46.9116C234.632 45.8662 235.827 44.4476 236.686 42.6556C237.582 40.8262 238.03 38.7916 238.03 36.5516C238.03 34.3489 237.582 32.3702 236.686 30.6156C235.827 28.8609 234.632 27.4609 233.102 26.4156C231.571 25.3702 229.816 24.8476 227.838 24.8476C225.896 24.8476 224.142 25.3516 222.574 26.3596C221.043 27.3676 219.83 28.7489 218.934 30.5036C218.075 32.2582 217.646 34.2742 217.646 36.5516C217.646 38.7916 218.075 40.8262 218.934 42.6556C219.83 44.4476 221.043 45.8662 222.574 46.9116C224.104 47.9196 225.859 48.4236 227.838 48.4236Z" stroke="url(#paint12_linear_3207_10)" stroke-width="2" mask="url(#path-1-outside-1_3207_10)"/>
<path d="M248.359 46.4636C248.06 46.0156 247.911 45.5862 247.911 45.1756C247.948 44.7276 248.191 44.3729 248.639 44.1116C248.937 43.8502 249.273 43.7382 249.647 43.7756C250.057 43.8129 250.431 43.9996 250.767 44.3356C251.775 45.6422 252.988 46.7062 254.407 47.5276C255.863 48.3116 257.58 48.7036 259.559 48.7036C260.604 48.7036 261.631 48.5356 262.639 48.1996C263.684 47.8262 264.543 47.2849 265.215 46.5756C265.887 45.8289 266.223 44.8956 266.223 43.7756C266.223 42.6182 265.887 41.6849 265.215 40.9756C264.543 40.2662 263.665 39.7062 262.583 39.2956C261.537 38.8849 260.417 38.5302 259.223 38.2316C257.953 37.8956 256.721 37.5222 255.527 37.1116C254.332 36.6636 253.268 36.1222 252.335 35.4876C251.439 34.8156 250.711 34.0129 250.151 33.0796C249.591 32.1462 249.311 31.0076 249.311 29.6636C249.311 28.0956 249.74 26.7142 250.599 25.5196C251.457 24.3249 252.615 23.3916 254.071 22.7196C255.564 22.0476 257.244 21.7116 259.111 21.7116C260.044 21.7116 261.052 21.8422 262.135 22.1036C263.217 22.3276 264.281 22.7196 265.327 23.2796C266.372 23.8396 267.305 24.6049 268.127 25.5756C268.463 25.9116 268.631 26.3036 268.631 26.7516C268.631 27.1622 268.444 27.5356 268.071 27.8716C267.772 28.0956 267.417 28.2076 267.007 28.2076C266.633 28.2076 266.316 28.0582 266.055 27.7596C265.159 26.7516 264.095 25.9862 262.863 25.4636C261.631 24.9409 260.305 24.6796 258.887 24.6796C257.804 24.6796 256.777 24.8662 255.807 25.2396C254.873 25.5756 254.089 26.0982 253.455 26.8076C252.82 27.5169 252.503 28.4502 252.503 29.6076C252.577 30.6902 252.951 31.5676 253.623 32.2396C254.332 32.9116 255.247 33.4716 256.367 33.9196C257.524 34.3676 258.812 34.7782 260.231 35.1516C261.425 35.4502 262.564 35.8049 263.647 36.2156C264.767 36.6262 265.737 37.1489 266.559 37.7836C267.417 38.3809 268.089 39.1462 268.575 40.0796C269.097 41.0129 269.359 42.1889 269.359 43.6076C269.359 45.2502 268.892 46.6689 267.959 47.8636C267.063 49.0582 265.849 49.9729 264.319 50.6076C262.788 51.2422 261.089 51.5596 259.223 51.5596C257.207 51.5596 255.247 51.1676 253.343 50.3836C251.476 49.5996 249.815 48.2929 248.359 46.4636Z" stroke="url(#paint13_linear_3207_10)" stroke-width="2" mask="url(#path-1-outside-1_3207_10)"/>
<path d="M289.281 22.1596C291.633 22.1596 293.537 22.6636 294.993 23.6716C296.449 24.6796 297.513 26.0422 298.185 27.7596C298.894 29.4769 299.249 31.3809 299.249 33.4716V49.3196C299.249 49.7676 299.081 50.1596 298.745 50.4956C298.409 50.8316 298.017 50.9996 297.569 50.9996C297.046 50.9996 296.635 50.8316 296.337 50.4956C296.038 50.1596 295.889 49.7676 295.889 49.3196V33.4716C295.889 31.9409 295.646 30.5596 295.161 29.3276C294.713 28.0956 293.966 27.1249 292.921 26.4156C291.875 25.6689 290.475 25.2956 288.721 25.2956C287.153 25.2956 285.659 25.6689 284.241 26.4156C282.859 27.1249 281.739 28.0956 280.881 29.3276C280.022 30.5596 279.593 31.9409 279.593 33.4716V49.3196C279.593 49.7676 279.425 50.1596 279.089 50.4956C278.753 50.8316 278.361 50.9996 277.913 50.9996C277.39 50.9996 276.979 50.8316 276.681 50.4956C276.382 50.1596 276.233 49.7676 276.233 49.3196V11.2396C276.233 10.7916 276.382 10.3996 276.681 10.0636C277.017 9.72757 277.427 9.55957 277.913 9.55957C278.398 9.55957 278.79 9.72757 279.089 10.0636C279.425 10.3996 279.593 10.7916 279.593 11.2396V29.3836L278.305 31.3436C278.379 30.1862 278.734 29.0662 279.369 27.9836C280.041 26.8636 280.899 25.8742 281.945 25.0156C282.99 24.1196 284.147 23.4289 285.417 22.9436C286.686 22.4209 287.974 22.1596 289.281 22.1596Z" stroke="url(#paint14_linear_3207_10)" stroke-width="2" mask="url(#path-1-outside-1_3207_10)"/>
<defs>
<linearGradient id="paint0_linear_3207_10" x1="72" y1="30" x2="304" y2="30" gradientUnits="userSpaceOnUse">
<stop stop-color="#A4BCFD"/>
<stop offset="1" stop-color="#756ADE"/>
</linearGradient>
<linearGradient id="paint1_linear_3207_10" x1="72" y1="30" x2="304" y2="30" gradientUnits="userSpaceOnUse">
<stop stop-color="#A4BCFD"/>
<stop offset="1" stop-color="#756ADE"/>
</linearGradient>
<linearGradient id="paint2_linear_3207_10" x1="72" y1="30" x2="304" y2="30" gradientUnits="userSpaceOnUse">
<stop stop-color="#A4BCFD"/>
<stop offset="1" stop-color="#756ADE"/>
</linearGradient>
<linearGradient id="paint3_linear_3207_10" x1="72" y1="30" x2="304" y2="30" gradientUnits="userSpaceOnUse">
<stop stop-color="#A4BCFD"/>
<stop offset="1" stop-color="#756ADE"/>
</linearGradient>
<linearGradient id="paint4_linear_3207_10" x1="72" y1="30" x2="304" y2="30" gradientUnits="userSpaceOnUse">
<stop stop-color="#A4BCFD"/>
<stop offset="1" stop-color="#756ADE"/>
</linearGradient>
<linearGradient id="paint5_linear_3207_10" x1="72" y1="30" x2="304" y2="30" gradientUnits="userSpaceOnUse">
<stop stop-color="#A4BCFD"/>
<stop offset="1" stop-color="#756ADE"/>
</linearGradient>
<linearGradient id="paint6_linear_3207_10" x1="72" y1="30" x2="304" y2="30" gradientUnits="userSpaceOnUse">
<stop stop-color="#A4BCFD"/>
<stop offset="1" stop-color="#756ADE"/>
</linearGradient>
<linearGradient id="paint7_linear_3207_10" x1="72" y1="30" x2="304" y2="30" gradientUnits="userSpaceOnUse">
<stop stop-color="#A3BAFD"/>
<stop offset="1" stop-color="#756ADE"/>
</linearGradient>
<linearGradient id="paint8_linear_3207_10" x1="72" y1="30" x2="304" y2="30" gradientUnits="userSpaceOnUse">
<stop stop-color="#A3BAFD"/>
<stop offset="1" stop-color="#756ADE"/>
</linearGradient>
<linearGradient id="paint9_linear_3207_10" x1="72" y1="30" x2="304" y2="30" gradientUnits="userSpaceOnUse">
<stop stop-color="#A3BAFD"/>
<stop offset="1" stop-color="#756ADE"/>
</linearGradient>
<linearGradient id="paint10_linear_3207_10" x1="72" y1="30" x2="304" y2="30" gradientUnits="userSpaceOnUse">
<stop stop-color="#A3BAFD"/>
<stop offset="1" stop-color="#756ADE"/>
</linearGradient>
<linearGradient id="paint11_linear_3207_10" x1="72" y1="30" x2="304" y2="30" gradientUnits="userSpaceOnUse">
<stop stop-color="#A3BAFD"/>
<stop offset="1" stop-color="#756ADE"/>
</linearGradient>
<linearGradient id="paint12_linear_3207_10" x1="72" y1="30" x2="304" y2="30" gradientUnits="userSpaceOnUse">
<stop stop-color="#A3BAFD"/>
<stop offset="1" stop-color="#756ADE"/>
</linearGradient>
<linearGradient id="paint13_linear_3207_10" x1="72" y1="30" x2="304" y2="30" gradientUnits="userSpaceOnUse">
<stop stop-color="#A3BAFD"/>
<stop offset="1" stop-color="#756ADE"/>
</linearGradient>
<linearGradient id="paint14_linear_3207_10" x1="72" y1="30" x2="304" y2="30" gradientUnits="userSpaceOnUse">
<stop stop-color="#A3BAFD"/>
<stop offset="1" stop-color="#756ADE"/>
</linearGradient>
</defs>
</svg>
