<svg width="61" height="61" viewBox="0 0 61 61" fill="none" xmlns="http://www.w3.org/2000/svg">
<path fill-rule="evenodd" clip-rule="evenodd" d="M30.5 58.1364C34.5915 58.1364 38.4754 57.2472 41.9689 55.6517C38.4235 55.5819 34.4859 54.5681 30.5013 52.6964C26.5157 54.5686 22.5772 55.5824 19.0311 55.6516C22.5246 57.2472 26.4085 58.1364 30.5 58.1364ZM5.35107 41.9749C5.41976 38.4282 6.43355 34.4887 8.30603 30.5022C6.43293 26.5152 5.41869 22.5752 5.34973 19.0281C3.75328 22.5224 2.86364 26.4073 2.86364 30.5C2.86364 34.5939 3.75378 38.4798 5.35107 41.9749ZM10.1089 33.9045C9.65749 35.0673 9.29149 36.2124 9.01251 37.3283C7.58733 43.029 8.52122 47.4107 11.0566 49.9461C13.5921 52.4816 17.9738 53.4155 23.6745 51.9903C24.7906 51.7112 25.9359 51.3452 27.0988 50.8937C23.8207 48.9577 20.5772 46.4574 17.5607 43.4408C14.5447 40.4248 12.0447 37.182 10.1089 33.9045ZM30.5013 49.3509C26.8443 47.4555 23.1253 44.7628 19.682 41.3195C16.2393 37.8768 13.5469 34.1585 11.6516 30.5021C13.5469 26.8448 16.2398 23.1255 19.6833 19.682C23.1262 16.2391 26.8448 13.5466 30.5013 11.6513C34.1579 13.5466 37.8765 16.2391 41.3194 19.682C44.763 23.1256 47.4558 26.8448 49.3512 30.5021C47.4559 34.1584 44.7635 37.8767 41.3208 41.3194C37.8775 44.7628 34.1584 47.4555 30.5013 49.3509ZM33.9039 50.8937C37.182 48.9577 40.4255 46.4573 43.4421 43.4408C46.4581 40.4248 48.958 37.182 50.8939 33.9045C51.3453 35.0673 51.7113 36.2124 51.9903 37.3284C53.4155 43.0291 52.4816 47.4108 49.9461 49.9462C47.4107 52.4816 43.029 53.4155 37.3283 51.9903C36.2122 51.7113 35.0668 51.3452 33.9039 50.8937ZM52.6967 30.5022C54.5682 34.4866 55.5819 38.4239 55.6516 41.969C57.2472 38.4755 58.1364 34.5916 58.1364 30.5C58.1364 26.4096 57.2477 22.5267 55.6529 19.0339C55.583 22.5796 54.5688 26.5174 52.6967 30.5022ZM41.972 5.34978C38.4258 5.4192 34.4871 6.43329 30.5013 8.30571C26.5146 6.43284 22.5749 5.41873 19.028 5.34979C22.5223 3.7533 26.4072 2.86364 30.5 2.86364C34.5928 2.86364 38.4777 3.7533 41.972 5.34978ZM51.9378 8.80501C46.4288 3.361 38.8569 0 30.5 0C13.6553 0 0 13.6553 0 30.5C0 47.3447 13.6553 61 30.5 61C38.8534 61 46.4225 57.6418 51.9308 52.2019C51.9767 52.1575 52.0222 52.1127 52.0675 52.0675C52.1127 52.0223 52.1574 51.9768 52.2018 51.9309C57.6418 46.4225 61 38.8534 61 30.5C61 22.1453 57.6408 14.5752 52.1993 9.06664C52.1563 9.0221 52.1128 8.97787 52.0688 8.93395C52.0254 8.89057 51.9818 8.84759 51.9378 8.80501ZM33.9036 10.1084C35.0671 9.6566 36.213 9.29031 37.3297 9.01113C43.0304 7.58596 47.4121 8.51985 49.9475 11.0553C52.4829 13.5907 53.4168 17.9724 51.9916 23.6731C51.7124 24.79 51.3461 25.936 50.8941 27.0997C48.9581 23.8213 46.4576 20.5775 43.4408 17.5607C40.4245 14.5445 37.1814 12.0443 33.9036 10.1084ZM27.0991 10.1084C25.9356 9.65664 24.7897 9.29035 23.6731 9.01119C17.9724 7.58602 13.5907 8.51991 11.0553 11.0553C8.51985 13.5907 7.58596 17.9725 9.01113 23.6732C9.29034 24.79 9.6567 25.936 10.1086 27.0997C12.0447 23.8213 14.5452 20.5775 17.562 17.5607C20.5782 14.5444 23.8214 12.0443 27.0991 10.1084Z" fill="#756ADE"/>
</svg>
